<svg width="228" height="49" viewBox="0 0 228 49" fill="none" xmlns="http://www.w3.org/2000/svg">
<path d="M11.1032 3.40142L20.9699 25.3899C21.0727 25.6233 21.241 25.8217 21.4541 25.9609C21.6673 26.1001 21.9163 26.1743 22.1707 26.1743C22.4251 26.1743 22.674 26.1001 22.8872 25.9609C23.1004 25.8217 23.2686 25.6233 23.3715 25.3899L33.2381 3.40142C33.4594 2.90783 33.8181 2.4888 34.2711 2.19472C34.7241 1.90064 35.2522 1.74401 35.7918 1.74365H41.5317C42.0062 1.74369 42.473 1.86459 42.8882 2.09502C43.3034 2.32545 43.6534 2.65785 43.9055 3.06105C44.1575 3.46426 44.3033 3.92506 44.3292 4.40022C44.355 4.87539 44.2601 5.34936 44.0534 5.77769L24.6884 45.9535C24.4589 46.4286 24.1007 46.8292 23.6547 47.1095C23.2087 47.3898 22.693 47.5385 22.1667 47.5385C21.6403 47.5385 21.1246 47.3898 20.6786 47.1095C20.2326 46.8292 19.8744 46.4286 19.645 45.9535L0.279947 5.77769C0.0731833 5.34936 -0.0217061 4.87539 0.00416903 4.40022C0.0300442 3.92506 0.175841 3.46426 0.427885 3.06105C0.679929 2.65785 1.02996 2.32545 1.44516 2.09502C1.86035 1.86459 2.3271 1.74369 2.80164 1.74365H8.54951C9.08916 1.74401 9.61723 1.90064 10.0703 2.19472C10.5233 2.4888 10.882 2.90783 11.1032 3.40142Z" fill="#005864"/>
<path d="M103.229 36.3758C103.389 36.4653 103.53 36.5866 103.643 36.7324C103.755 36.8782 103.837 37.0454 103.883 37.2238C103.929 37.4023 103.938 37.5883 103.91 37.7704C103.882 37.9526 103.818 38.1272 103.72 38.2835C101.923 41.1643 99.5293 43.6244 96.7017 45.4974C92.9886 47.9021 88.0764 49.0002 83.1642 49.0002C77.0529 49.0002 72.0328 47.4692 67.6642 43.0888C63.2956 38.7083 60.8975 32.3641 60.8975 25.4548C60.8975 18.3411 63.4075 11.4478 68.2118 6.52226C72.0328 2.69087 77.0529 0.282227 83.6038 0.282227C90.9142 0.282227 95.5945 3.45635 98.3404 6.29382C102.364 10.2449 104.663 15.6326 104.735 21.2787C104.735 21.2787 105.135 26.8895 100.339 26.8895L73.3078 27.0859C73.1167 27.0861 72.9279 27.1281 72.7545 27.209C72.5812 27.2899 72.4276 27.4077 72.3043 27.5542C72.181 27.7007 72.0911 27.8724 72.0407 28.0573C71.9904 28.2422 71.9809 28.4359 72.0128 28.6249C72.5045 31.4784 73.8194 34.4441 75.7579 36.3879C78.268 38.9047 81.3256 39.3456 83.9436 39.3456C86.8933 39.3456 89.0756 38.6883 91.2579 37.0451C92.6776 35.9328 93.9004 34.5888 94.8751 33.0695C95.0639 32.7872 95.3521 32.587 95.682 32.5089C96.0119 32.4309 96.359 32.4808 96.6537 32.6486L103.229 36.3758ZM92.1133 18.3411C92.3301 18.3412 92.5438 18.2895 92.7367 18.1902C92.9295 18.0909 93.096 17.9469 93.2222 17.7702C93.3485 17.5934 93.4308 17.389 93.4625 17.174C93.4942 16.9589 93.4742 16.7393 93.4042 16.5336C92.8468 14.849 91.8862 13.3271 90.6064 12.101C89.1875 10.7905 86.8973 9.47596 83.412 9.47596C79.6989 9.47596 77.3007 11.0069 75.8818 12.4297C74.706 13.5721 73.7898 14.9555 73.1959 16.4855C73.115 16.6919 73.0857 16.9151 73.1107 17.1356C73.1356 17.356 73.214 17.5669 73.339 17.75C73.4639 17.933 73.6317 18.0826 73.8277 18.1856C74.0236 18.2887 74.2417 18.342 74.4629 18.3411H92.1133Z" fill="#005864"/>
<path d="M145.421 12.2503C144.871 12.6022 144.216 12.7544 143.566 12.6814C142.916 12.6084 142.311 12.3146 141.854 11.8495C141.181 11.1701 140.378 10.6315 139.493 10.2653C138.608 9.89914 137.659 9.71279 136.7 9.7172C136.098 9.69103 135.497 9.78381 134.931 9.99018C134.365 10.1966 133.846 10.5124 133.403 10.9196C132.772 11.563 132.417 12.4253 132.413 13.3244C132.413 14.5269 132.964 15.2924 133.951 15.9497C134.611 16.3866 135.271 16.6071 137.574 17.8135L143.078 20.539C145.493 21.7414 147.808 22.9438 149.568 24.8075C152.096 27.3286 152.974 30.1743 152.974 33.3487C153.009 37.2377 151.555 40.9942 148.907 43.8538C145.284 47.7977 140.771 49.0002 135.931 49.0002C132.964 49.0002 129.224 48.5633 125.927 46.0462C123.935 44.5005 122.304 42.5421 121.148 40.3067C120.97 39.9718 120.862 39.6045 120.83 39.2269C120.799 38.8493 120.844 38.4693 120.964 38.1097C121.084 37.7501 121.276 37.4185 121.529 37.1348C121.781 36.8511 122.088 36.6212 122.432 36.4589L126.201 34.6794C126.852 34.3725 127.598 34.3262 128.283 34.5498C128.968 34.7735 129.541 35.2502 129.884 35.8818C130.253 36.6005 130.736 37.2555 131.314 37.8217C131.974 38.479 133.512 39.5732 136.04 39.5732C137.691 39.5732 139.45 39.0281 140.441 38.0421C141.385 37.0715 141.934 35.7857 141.979 34.4349C141.987 33.1752 141.51 31.9602 140.646 31.0401C140.582 30.9679 140.517 30.8958 140.449 30.8316C139.152 29.5771 137.63 28.8276 135.931 28.0861L131.974 26.2224C129.884 25.2404 127.356 24.034 125.597 22.2825C123.181 19.9858 122.299 17.4728 122.299 14.5108C122.283 10.861 123.657 7.34065 126.144 4.65903C128.234 2.47063 131.752 0.282227 137.469 0.282227C140.771 0.282227 143.408 0.939548 146.049 2.68706C147.37 3.53585 148.551 4.58222 149.552 5.78931C149.807 6.09273 149.996 6.44661 150.104 6.82767C150.213 7.20874 150.239 7.60835 150.181 8.00021C150.123 8.39207 149.983 8.76731 149.769 9.10124C149.555 9.43517 149.272 9.72021 148.94 9.93764L145.421 12.2503Z" fill="#005864"/>
<path d="M193.652 12.2503C193.101 12.6022 192.446 12.7544 191.796 12.6814C191.147 12.6084 190.542 12.3146 190.085 11.8495C189.412 11.1701 188.609 10.6315 187.724 10.2653C186.839 9.89914 185.89 9.71279 184.931 9.7172C184.329 9.69103 183.728 9.78381 183.162 9.99018C182.596 10.1966 182.077 10.5124 181.634 10.9196C181.003 11.563 180.648 12.4253 180.643 13.3244C180.643 14.5269 181.195 15.2924 182.181 15.9497C182.842 16.3866 183.502 16.6071 185.805 17.8135L191.308 20.539C193.724 21.7414 196.039 22.9438 197.798 24.8075C200.327 27.3286 201.204 30.1743 201.204 33.3487C201.24 37.2377 199.786 40.9942 197.138 43.8538C193.515 47.7977 189.002 49.0002 184.162 49.0002C181.195 49.0002 177.455 48.5633 174.157 46.0462C172.165 44.5005 170.535 42.5421 169.379 40.3067C169.201 39.9718 169.092 39.6045 169.061 39.2269C169.029 38.8493 169.075 38.4693 169.195 38.1097C169.315 37.7501 169.507 37.4185 169.759 37.1348C170.012 36.8511 170.319 36.6212 170.663 36.4589L174.431 34.6794C175.083 34.3725 175.829 34.3262 176.514 34.5498C177.199 34.7735 177.772 35.2502 178.115 35.8818C178.484 36.6005 178.967 37.2555 179.544 37.8217C180.205 38.479 181.743 39.5732 184.271 39.5732C185.922 39.5732 187.681 39.0281 188.671 38.0421C189.616 37.0715 190.164 35.7857 190.209 34.4349C190.218 33.1752 189.741 31.9602 188.877 31.0401C188.812 30.9679 188.748 30.8958 188.679 30.8316C187.383 29.5771 185.861 28.8276 184.162 28.0861L180.205 26.2224C178.115 25.2404 175.587 24.034 173.827 22.2825C171.412 19.9858 170.53 17.4728 170.53 14.5108C170.514 10.861 171.888 7.34065 174.375 4.65903C176.464 2.47063 179.983 0.282227 185.7 0.282227C189.002 0.282227 191.639 0.939548 194.28 2.68706C195.6 3.53585 196.782 4.58222 197.782 5.78931C198.038 6.09273 198.226 6.44661 198.335 6.82767C198.443 7.20874 198.469 7.60835 198.412 8.00021C198.354 8.39207 198.213 8.76731 197.999 9.10124C197.785 9.43517 197.503 9.72021 197.17 9.93764L193.652 12.2503Z" fill="#005864"/>
<path d="M228 3.27359V45.2087C228 45.9558 227.701 46.6723 227.17 47.2005C226.638 47.7288 225.917 48.0256 225.166 48.0256H220.116C219.365 48.0256 218.644 47.7288 218.112 47.2005C217.581 46.6723 217.282 45.9558 217.282 45.2087V8.93147C217.282 8.50765 217.378 8.08925 217.563 7.70744C217.748 7.32562 218.017 6.99023 218.351 6.72626L224.712 1.69613C225.01 1.45945 225.37 1.31138 225.749 1.26897C226.128 1.22656 226.512 1.29154 226.856 1.45644C227.199 1.62134 227.489 1.87943 227.692 2.20094C227.894 2.52245 228.001 2.89429 228 3.27359Z" fill="#005864"/>
</svg>
