<svg width="133" height="33" viewBox="0 0 133 33" fill="none" xmlns="http://www.w3.org/2000/svg">
<path d="M17.2594 7.7964L21.9331 18.3598C21.9818 18.4719 22.0615 18.5671 22.1625 18.634C22.2635 18.7009 22.3814 18.7365 22.5019 18.7365C22.6224 18.7365 22.7403 18.7009 22.8413 18.634C22.9423 18.5671 23.022 18.4719 23.0707 18.3598L27.7444 7.7964C27.8492 7.55927 28.0191 7.35797 28.2337 7.2167C28.4483 7.07542 28.6984 7.00017 28.954 7H31.6729C31.8977 7.00002 32.1188 7.0581 32.3155 7.1688C32.5121 7.2795 32.6779 7.43918 32.7973 7.63288C32.9167 7.82658 32.9858 8.04795 32.998 8.27623C33.0103 8.5045 32.9653 8.73219 32.8674 8.93796L23.6945 28.2386C23.5858 28.4668 23.4161 28.6592 23.2049 28.7939C22.9936 28.9286 22.7493 29 22.5 29C22.2507 29 22.0064 28.9286 21.7951 28.7939C21.5839 28.6592 21.4142 28.4668 21.3055 28.2386L12.1326 8.93796C12.0347 8.73219 11.9897 8.5045 12.002 8.27623C12.0142 8.04795 12.0833 7.82658 12.2027 7.63288C12.3221 7.43918 12.4879 7.2795 12.6845 7.1688C12.8812 7.0581 13.1023 7.00002 13.3271 7H16.0498C16.3054 7.00017 16.5555 7.07542 16.7701 7.2167C16.9847 7.35797 17.1546 7.55927 17.2594 7.7964Z" fill="#005864"/>
<path d="M61.2744 23.04C61.3514 23.0822 61.4189 23.1395 61.4727 23.2083C61.5266 23.2771 61.5658 23.3561 61.5878 23.4403C61.6098 23.5246 61.6143 23.6124 61.6009 23.6984C61.5875 23.7844 61.5565 23.8668 61.5099 23.9406C60.649 25.3006 59.5026 26.4621 58.1483 27.3463C56.37 28.4816 54.0173 29 51.6646 29C48.7376 29 46.3333 28.2772 44.2409 26.2092C42.1486 24.1412 41 21.146 41 17.8841C41 14.5257 42.2022 11.2713 44.5032 8.94595C46.3333 7.13714 48.7376 6 51.8752 6C55.3764 6 57.6181 7.49852 58.9332 8.8381C60.8601 10.7034 61.9613 13.247 61.9961 15.9126C61.9961 15.9126 62.1875 18.5615 59.8904 18.5615L46.9439 18.6542C46.8524 18.6543 46.7619 18.6741 46.6789 18.7123C46.5959 18.7505 46.5223 18.8061 46.4633 18.8752C46.4042 18.9444 46.3611 19.0254 46.337 19.1128C46.3129 19.2001 46.3084 19.2915 46.3237 19.3807C46.5591 20.7279 47.1889 22.128 48.1174 23.0457C49.3196 24.2339 50.784 24.442 52.0379 24.442C53.4506 24.442 54.4958 24.1317 55.5411 23.356C56.221 22.8308 56.8067 22.1963 57.2735 21.479C57.3639 21.3458 57.502 21.2512 57.66 21.2144C57.818 21.1775 57.9842 21.2011 58.1254 21.2804L61.2744 23.04ZM55.9507 14.5257C56.0546 14.5257 56.1569 14.5013 56.2493 14.4544C56.3417 14.4076 56.4214 14.3396 56.4819 14.2561C56.5423 14.1727 56.5818 14.0762 56.5969 13.9747C56.6121 13.8731 56.6025 13.7695 56.569 13.6723C56.3021 12.8771 55.842 12.1586 55.229 11.5797C54.5494 10.961 53.4525 10.3404 51.7833 10.3404C50.0049 10.3404 48.8563 11.0632 48.1767 11.7349C47.6135 12.2742 47.1747 12.9273 46.8903 13.6496C46.8516 13.7471 46.8375 13.8525 46.8495 13.9565C46.8614 14.0606 46.899 14.1602 46.9588 14.2466C47.0187 14.333 47.099 14.4037 47.1929 14.4523C47.2867 14.5009 47.3912 14.5261 47.4972 14.5257H55.9507Z" fill="#005864"/>
<path d="M81.4762 11.6502C81.2196 11.8163 80.9139 11.8882 80.6108 11.8537C80.3077 11.8193 80.0256 11.6805 79.8122 11.461C79.4983 11.1402 79.1239 10.8859 78.711 10.7131C78.2982 10.5402 77.8552 10.4522 77.4081 10.4543C77.1272 10.4419 76.8466 10.4857 76.5826 10.5832C76.3186 10.6806 76.0764 10.8297 75.8699 11.022C75.5755 11.3257 75.4099 11.7328 75.4078 12.1573C75.4078 12.725 75.6651 13.0864 76.1253 13.3967C76.4333 13.603 76.7413 13.707 77.8157 14.2766L80.3831 15.5633C81.51 16.131 82.59 16.6986 83.4108 17.5785C84.5903 18.7687 84.9997 20.1122 84.9997 21.6109C85.0163 23.4469 84.3379 25.2203 83.1027 26.5704C81.4124 28.4323 79.3069 29 77.0494 29C75.6651 29 73.9203 28.7937 72.3821 27.6054C71.4528 26.8757 70.6921 25.9511 70.1527 24.8958C70.0696 24.7377 70.0192 24.5642 70.0045 24.386C69.9898 24.2077 70.0111 24.0283 70.0671 23.8586C70.1231 23.6888 70.2126 23.5322 70.3303 23.3983C70.448 23.2644 70.5914 23.1558 70.7518 23.0792L72.5098 22.2391C72.8139 22.0942 73.1616 22.0723 73.4813 22.1779C73.801 22.2835 74.0684 22.5086 74.2283 22.8068C74.4004 23.1461 74.6256 23.4553 74.8951 23.7226C75.2031 24.0329 75.9206 24.5495 77.1001 24.5495C77.8701 24.5495 78.6909 24.2921 79.1529 23.8267C79.5937 23.3684 79.8494 22.7614 79.8704 22.1236C79.8744 21.5289 79.6519 20.9553 79.2487 20.5209C79.2187 20.4869 79.1886 20.4528 79.1567 20.4225C78.5519 19.8303 77.8419 19.4764 77.0494 19.1264L75.2031 18.2465C74.2283 17.7829 73.0488 17.2133 72.2281 16.3864C71.1012 15.3022 70.6898 14.1158 70.6898 12.7174C70.6823 10.9943 71.3232 9.33232 72.4835 8.06631C73.4583 7.03316 75.0998 6 77.7668 6C79.3069 6 80.5371 6.31032 81.7692 7.13534C82.3854 7.53605 82.9365 8.03005 83.4032 8.59992C83.5225 8.74317 83.6104 8.91024 83.661 9.09014C83.7116 9.27004 83.7238 9.4587 83.6968 9.6437C83.6698 9.8287 83.6043 10.0059 83.5045 10.1635C83.4047 10.3212 83.2729 10.4557 83.1178 10.5584L81.4762 11.6502Z" fill="#005864"/>
<path d="M104.476 11.6502C104.22 11.8163 103.914 11.8882 103.611 11.8537C103.308 11.8193 103.026 11.6805 102.812 11.461C102.498 11.1402 102.124 10.8859 101.711 10.7131C101.298 10.5402 100.855 10.4522 100.408 10.4543C100.127 10.4419 99.8466 10.4857 99.5826 10.5832C99.3186 10.6806 99.0764 10.8297 98.8699 11.022C98.5755 11.3257 98.4099 11.7328 98.4078 12.1573C98.4078 12.725 98.6651 13.0864 99.1253 13.3967C99.4333 13.603 99.7413 13.707 100.816 14.2766L103.383 15.5633C104.51 16.131 105.59 16.6986 106.411 17.5785C107.59 18.7687 108 20.1122 108 21.6109C108.016 23.4469 107.338 25.2203 106.103 26.5704C104.412 28.4323 102.307 29 100.049 29C98.6651 29 96.9203 28.7937 95.3821 27.6054C94.4528 26.8757 93.6921 25.9511 93.1527 24.8958C93.0696 24.7377 93.0192 24.5642 93.0045 24.386C92.9898 24.2077 93.0111 24.0283 93.0671 23.8586C93.1231 23.6888 93.2126 23.5322 93.3303 23.3983C93.448 23.2644 93.5914 23.1558 93.7518 23.0792L95.5098 22.2391C95.8139 22.0942 96.1616 22.0723 96.4813 22.1779C96.801 22.2835 97.0684 22.5086 97.2283 22.8068C97.4004 23.1461 97.6256 23.4553 97.8951 23.7226C98.2031 24.0329 98.9206 24.5495 100.1 24.5495C100.87 24.5495 101.691 24.2921 102.153 23.8267C102.594 23.3684 102.849 22.7614 102.87 22.1236C102.874 21.5289 102.652 20.9553 102.249 20.5209C102.219 20.4869 102.189 20.4528 102.157 20.4225C101.552 19.8303 100.842 19.4764 100.049 19.1264L98.2031 18.2465C97.2283 17.7829 96.0488 17.2133 95.2281 16.3864C94.1012 15.3022 93.6898 14.1158 93.6898 12.7174C93.6823 10.9943 94.3232 9.33232 95.4835 8.06631C96.4583 7.03316 98.0998 6 100.767 6C102.307 6 103.537 6.31032 104.769 7.13534C105.385 7.53605 105.936 8.03005 106.403 8.59992C106.523 8.74317 106.61 8.91024 106.661 9.09014C106.712 9.27004 106.724 9.4587 106.697 9.6437C106.67 9.8287 106.604 10.0059 106.504 10.1635C106.405 10.3212 106.273 10.4557 106.118 10.5584L104.476 11.6502Z" fill="#005864"/>
<path d="M121 6.99203V27.6147C121 27.9821 120.861 28.3345 120.613 28.5943C120.365 28.8541 120.028 29 119.678 29H117.322C116.972 29 116.635 28.8541 116.387 28.5943C116.139 28.3345 116 27.9821 116 27.6147V9.77444C116 9.56602 116.045 9.36026 116.131 9.17249C116.217 8.98473 116.343 8.81979 116.499 8.68997L119.466 6.21628C119.605 6.09988 119.773 6.02706 119.95 6.00621C120.127 5.98535 120.306 6.01731 120.466 6.0984C120.626 6.17949 120.762 6.30642 120.856 6.46453C120.951 6.62264 121 6.8055 121 6.99203Z" fill="#005864"/>
</svg>
