<svg width="50" height="50" viewBox="0 0 50 50" fill="none" xmlns="http://www.w3.org/2000/svg">
<path d="M46.4354 18.75C46.4354 20.9584 46.0299 23.0479 45.2187 25.0188C44.4076 26.9896 43.3264 28.7528 41.975 30.3084C41.7458 30.5542 41.4785 30.7007 41.1729 30.7479C40.8687 30.7966 40.591 30.6959 40.3396 30.4459C40.1076 30.2125 40.0021 29.9438 40.0229 29.6396C40.0437 29.3341 40.166 29.0549 40.3896 28.8021C41.591 27.4299 42.5312 25.8875 43.2104 24.175C43.8896 22.4625 44.2299 20.6542 44.2312 18.75C44.2326 16.8459 43.8923 15.0417 43.2104 13.3375C42.5285 11.6334 41.5882 10.0952 40.3896 8.72294C40.159 8.46877 40.0354 8.18683 40.0187 7.87711C40.0021 7.56738 40.1167 7.29239 40.3625 7.05211C40.5917 6.81183 40.8604 6.71322 41.1687 6.75627C41.4771 6.80072 41.7458 6.94586 41.975 7.19169C43.3264 8.74863 44.4076 10.5125 45.2187 12.4834C46.0299 14.4528 46.4354 16.5417 46.4354 18.75ZM36.6354 18.75C36.6354 19.6264 36.4882 20.4688 36.1937 21.2771C35.8993 22.0841 35.4937 22.8153 34.9771 23.4709C34.7812 23.7236 34.5361 23.8584 34.2417 23.875C33.9472 23.8917 33.6743 23.775 33.4229 23.525C33.1896 23.2931 33.0708 23.0292 33.0667 22.7334C33.0625 22.4389 33.15 22.157 33.3292 21.8875C33.6708 21.425 33.9361 20.9292 34.125 20.4C34.3125 19.8695 34.4062 19.3195 34.4062 18.75C34.4062 18.1306 34.3097 17.5681 34.1167 17.0625C33.9222 16.5556 33.6597 16.0681 33.3292 15.6C33.15 15.3306 33.0625 15.05 33.0667 14.7584C33.0708 14.4681 33.1889 14.2063 33.4208 13.9729C33.6722 13.7229 33.9451 13.6063 34.2396 13.6229C34.534 13.6396 34.7792 13.775 34.975 14.0292C35.4986 14.6917 35.9062 15.4132 36.1979 16.1938C36.4896 16.9743 36.6354 17.8264 36.6354 18.75ZM18.1458 25C16.4278 25 14.9569 24.3882 13.7333 23.1646C12.5097 21.941 11.8986 20.4695 11.9 18.75C11.9014 17.0306 12.5125 15.5591 13.7333 14.3354C14.9542 13.1118 16.4271 12.5 18.1521 12.5C19.8771 12.5 21.3479 13.1118 22.5646 14.3354C23.7812 15.5591 24.393 17.0306 24.4 18.75C24.4069 20.4695 23.7944 21.941 22.5625 23.1646C21.3305 24.3882 19.859 25 18.1479 25M3.56458 37.9V36.6354C3.56458 35.6771 3.80624 34.8479 4.28958 34.1479C4.7743 33.4479 5.45694 32.891 6.33749 32.4771C8.02777 31.6535 9.90416 30.9764 11.9667 30.4459C14.0292 29.9139 16.0896 29.6479 18.1479 29.6479C20.2062 29.6479 22.2674 29.9139 24.3312 30.4459C26.3924 30.9764 28.2687 31.6535 29.9604 32.4771C30.841 32.891 31.5229 33.4479 32.0062 34.1479C32.4896 34.8466 32.7312 35.6757 32.7312 36.6354V37.9C32.7312 38.5111 32.5236 39.025 32.1083 39.4417C31.693 39.8584 31.1799 40.066 30.5687 40.0646H5.72916C5.11805 40.0646 4.60416 39.8563 4.18749 39.4396C3.77083 39.0229 3.56388 38.5097 3.56666 37.9M5.64999 37.9813H30.65V36.6354C30.65 36.066 30.4875 35.5986 30.1625 35.2334C29.8375 34.8681 29.4389 34.5584 28.9667 34.3042C27.6639 33.625 26.0312 33.0264 24.0687 32.5084C22.1076 31.9903 20.1347 31.7313 18.15 31.7313C16.1653 31.7313 14.1917 31.9903 12.2292 32.5084C10.2667 33.0264 8.63471 33.625 7.33333 34.3042C6.85971 34.557 6.46041 34.8667 6.13541 35.2334C5.8118 35.5986 5.64999 36.066 5.64999 36.6354V37.9813ZM18.15 22.9167C19.2958 22.9167 20.2764 22.5091 21.0917 21.6938C21.9069 20.8785 22.3153 19.8972 22.3167 18.75C22.318 17.6028 21.9097 16.6222 21.0917 15.8084C20.2736 14.9945 19.293 14.5861 18.15 14.5834C17.0069 14.5806 16.0257 14.9889 15.2062 15.8084C14.3868 16.6278 13.9792 17.6084 13.9833 18.75C13.9875 19.8917 14.3951 20.8729 15.2062 21.6938C16.0174 22.5146 16.9986 22.9222 18.15 22.9167Z" fill="#464646"/>
</svg>
