<svg width="48" height="48" viewBox="0 0 48 48" fill="none" xmlns="http://www.w3.org/2000/svg">
<path d="M31.1901 8.40918H16.8101C12.1701 8.40918 8.40942 12.1705 8.40942 16.8105V31.1892C8.40942 35.8292 12.1708 39.5905 16.8108 39.5905H31.1894C35.8294 39.5905 39.5908 35.8292 39.5908 31.1892V16.8105C39.5908 12.1705 35.8301 8.40918 31.1901 8.40918Z" stroke="#005864" stroke-width="2" stroke-miterlimit="10"/>
<path d="M24.0001 31.5265C28.1569 31.5265 31.5267 28.1567 31.5267 23.9998C31.5267 19.8429 28.1569 16.4731 24.0001 16.4731C19.8432 16.4731 16.4734 19.8429 16.4734 23.9998C16.4734 28.1567 19.8432 31.5265 24.0001 31.5265Z" stroke="#005864" stroke-width="2" stroke-miterlimit="10"/>
<path d="M33.1393 16.4734C34.0299 16.4734 34.7519 15.7514 34.7519 14.8607C34.7519 13.9701 34.0299 13.248 33.1393 13.248C32.2486 13.248 31.5266 13.9701 31.5266 14.8607C31.5266 15.7514 32.2486 16.4734 33.1393 16.4734Z" fill="#005864"/>
</svg>
