<svg width="230" height="18" viewBox="0 0 230 18" fill="none" xmlns="http://www.w3.org/2000/svg">
<path d="M5 9.06934C12.3333 3.736 19.6667 3.736 27 9.06934C34.3333 14.4027 41.6667 14.4027 49 9.06934C56.3333 3.736 63.6667 3.736 71 9.06934C78.3333 14.4027 85.6667 14.4027 93 9.06934C100.333 3.736 107.667 3.736 115 9.06934C122.333 14.4027 129.667 14.4027 137 9.06934C144.333 3.736 151.667 3.736 159 9.06934C166.333 14.4027 173.667 14.4027 181 9.06934C188.333 3.736 195.667 3.736 203 9.06934C210.333 14.4027 217.667 14.4027 225 9.06934" stroke="#005864" stroke-width="9" stroke-linecap="round"/>
</svg>
